HIERARCHY
ROOT hip
{
  OFFSET 0 0 0
  CHANNELS 6 Xposition Yposition Zposition Zrotation Yrotation Xrotation
  JOINT abdomen
  {
    OFFSET 0 20.6881 -0.73152
    CHANNELS 3 Zrotation Xrotation Yrotation
    JOINT chest
    {
      OFFSET 0 11.7043 -0.48768
      CHANNELS 3 Zrotation Xrotation Yrotation
      JOINT neck
      {
        OFFSET 0 22.1894 -2.19456
        CHANNELS 3 Zrotation Xrotation Yrotation
        JOINT head
        {
          OFFSET -0.24384 7.07133 1.2192
          CHANNELS 3 Zrotation Xrotation Yrotation
          JOINT leftEye
          {
            OFFSET 4.14528 8.04674 8.04672
            CHANNELS 3 Zrotation Xrotation Yrotation
            End Site
            {
              OFFSET 1 0 0
            }
          }
          JOINT rightEye
          {
            OFFSET -3.6576 8.04674 8.04672
            CHANNELS 3 Zrotation Xrotation Yrotation
            End Site
            {
              OFFSET 1 0 0
            }
          }
        }
      }
      JOINT rCollar
      {
        OFFSET -2.68224 19.2634 -4.8768
        CHANNELS 3 Zrotation Xrotation Yrotation
        JOINT rShldr
        {
          OFFSET -8.77824 -1.95073 1.46304
          CHANNELS 3 Zrotation Xrotation Yrotation
          JOINT rForeArm
          {
            OFFSET -28.1742 -1.7115 0.48768
            CHANNELS 3 Zrotation Xrotation Yrotation
            JOINT rHand
            {
              OFFSET -22.5879 0.773209 7.07136
              CHANNELS 3 Zrotation Xrotation Yrotation
              JOINT rThumb1
              {
                OFFSET -1.2192 -0.487915 3.41376
                CHANNELS 3 Zrotation Xrotation Yrotation
                JOINT rThumb2
                {
                  OFFSET -3.37035 -0.52449 3.41376
                  CHANNELS 3 Zrotation Xrotation Yrotation
                  End Site
                  {
                    OFFSET -1.78271 -1.18214 1.43049
                  }
                }
              }
              JOINT rIndex1
              {
                OFFSET -7.75947 0.938293 5.60832
                CHANNELS 3 Zrotation Xrotation Yrotation
                JOINT rIndex2
                {
                  OFFSET -2.54057 -0.884171 1.56538
                  CHANNELS 3 Zrotation Xrotation Yrotation
                  End Site
                  {
                    OFFSET -1.62519 -0.234802 1.16502
                  }
                }
              }
              JOINT rMid1
              {
                OFFSET -8.24714 1.18213 3.41376
                CHANNELS 3 Zrotation Xrotation Yrotation
                JOINT rMid2
                {
                  OFFSET -3.10165 -0.590103 1.0647
                  CHANNELS 3 Zrotation Xrotation Yrotation
                  End Site
                  {
                    OFFSET -2.48547 -0.328903 0.83742
                  }
                }
              }
              JOINT rRing1
              {
                OFFSET -8.82822 0.546677 1.51678
                CHANNELS 3 Zrotation Xrotation Yrotation
                JOINT rRing2
                {
                  OFFSET -2.60934 -0.819778 -0.0198488
                  CHANNELS 3 Zrotation Xrotation Yrotation
                  End Site
                  {
                    OFFSET -2.33842 -0.294052 0.168128
                  }
                }
              }
              JOINT rPinky1
              {
                OFFSET -8.27202 -0.0477905 -0.4584
                CHANNELS 3 Zrotation Xrotation Yrotation
                JOINT rPinky2
                {
                  OFFSET -1.82734 -0.647385 -0.700984
                  CHANNELS 3 Zrotation Xrotation Yrotation
                  End Site
                  {
                    OFFSET -1.69225 -0.51767 -0.607171
                  }
                }
              }
            }
          }
        }
      }
      JOINT lCollar
      {
        OFFSET 2.68224 19.2634 -4.8768
        CHANNELS 3 Zrotation Xrotation Yrotation
        JOINT lShldr
        {
          OFFSET 8.77824 -1.95073 1.46304
          CHANNELS 3 Zrotation Xrotation Yrotation
          JOINT lForeArm
          {
            OFFSET 28.1742 -1.7115 0.48768
            CHANNELS 3 Zrotation Xrotation Yrotation
            JOINT lHand
            {
              OFFSET 22.5879 0.773209 7.07136
              CHANNELS 3 Zrotation Xrotation Yrotation
              JOINT lThumb1
              {
                OFFSET 1.2192 -0.487915 3.41376
                CHANNELS 3 Zrotation Xrotation Yrotation
                JOINT lThumb2
                {
                  OFFSET 3.37035 -0.52449 3.41376
                  CHANNELS 3 Zrotation Xrotation Yrotation
                  End Site
                  {
                    OFFSET 1.78271 -1.18214 1.43049
                  }
                }
              }
              JOINT lIndex1
              {
                OFFSET 7.75947 0.938293 5.60832
                CHANNELS 3 Zrotation Xrotation Yrotation
                JOINT lIndex2
                {
                  OFFSET 2.54057 -0.884171 1.56538
                  CHANNELS 3 Zrotation Xrotation Yrotation
                  End Site
                  {
                    OFFSET 1.62519 -0.234802 1.16502
                  }
                }
              }
              JOINT lMid1
              {
                OFFSET 8.24714 1.18213 3.41376
                CHANNELS 3 Zrotation Xrotation Yrotation
                JOINT lMid2
                {
                  OFFSET 3.10165 -0.590103 1.0647
                  CHANNELS 3 Zrotation Xrotation Yrotation
                  End Site
                  {
                    OFFSET 2.48547 -0.328903 0.83742
                  }
                }
              }
              JOINT lRing1
              {
                OFFSET 8.82822 0.546677 1.51678
                CHANNELS 3 Zrotation Xrotation Yrotation
                JOINT lRing2
                {
                  OFFSET 2.60934 -0.819778 -0.0198488
                  CHANNELS 3 Zrotation Xrotation Yrotation
                  End Site
                  {
                    OFFSET 2.33842 -0.294052 0.168128
                  }
                }
              }
              JOINT lPinky1
              {
                OFFSET 8.27202 -0.0477905 -0.4584
                CHANNELS 3 Zrotation Xrotation Yrotation
                JOINT lPinky2
                {
                  OFFSET 1.82734 -0.647385 -0.700984
                  CHANNELS 3 Zrotation Xrotation Yrotation
                  End Site
                  {
                    OFFSET 1.69225 -0.51767 -0.607171
                  }
                }
              }
            }
          }
        }
      }
    }
  }
  JOINT rButtock
  {
    OFFSET -8.77824 4.35084 1.2192
    CHANNELS 3 Zrotation Xrotation Yrotation
    JOINT rThigh
    {
      OFFSET 0 -1.70687 -2.19456
      CHANNELS 3 Zrotation Xrotation Yrotation
      JOINT rShin
      {
        OFFSET 0 -36.8199 0.73152
        CHANNELS 3 Zrotation Xrotation Yrotation
        JOINT rFoot
        {
          OFFSET 0.73152 -45.1104 -5.12064
          CHANNELS 3 Zrotation Xrotation Yrotation
          End Site
          {
            OFFSET -1.1221 -3.69964 12.103
          }
        }
      }
    }
  }
  JOINT lButtock
  {
    OFFSET 8.77824 4.35084 1.2192
    CHANNELS 3 Zrotation Xrotation Yrotation
    JOINT lThigh
    {
      OFFSET 0 -1.70687 -2.19456
      CHANNELS 3 Zrotation Xrotation Yrotation
      JOINT lShin
      {
        OFFSET 0 -36.8199 0.73152
        CHANNELS 3 Zrotation Xrotation Yrotation
        JOINT lFoot
        {
          OFFSET -0.73152 -45.1104 -5.12064
          CHANNELS 3 Zrotation Xrotation Yrotation
          End Site
          {
            OFFSET 1.1221 -3.69964 12.103
          }
        }
      }
    }
  }
}
MOTION
Frames:	4
Frame Time:	0.03333
27.2064 38.2046 28.4208 -11.609079 47.883336 -6.058387 0.322355 30.410675 175.70867 -120.095335 74.527266 -27.709455 -170.307015 -22.584265 -99.397568 -136.473082 -29.81219 -96.745087 -83.488613 0.307476 -0.344566 -76.629534 -3.833647 4.85058 16.723723 -1.986598 -58.437315 74.330288 28.264568 -52.357464 63.387082 67.07748 78.01406 -21.135832 11.482938 -27.549188 89.988513 78.260462 -135.404029 -147.851887 33.237083 23.812744 140.510289 81.040061 -142.091458 -71.555668 -81.213329 143.078434 164.038827 18.736084 -100.588362 161.497224 -35.96369 -107.193146 -98.116634 -9.223463 -135.903084 67.336339 -13.354835 61.858093 -85.508849 7.895116 -85.01424 -135.303472 -9.844159 -150.042486 150.026021 -42.02335 169.945882 40.935691 14.576404 -3.359493 2.25932 -10.073335 121.762383 -127.424144 -0.35268 -152.019105 7.804183 -11.531537 11.240409 -78.17074 31.145659 63.122423 76.601335 -58.435291 157.938661 164.017354 13.404495 -147.856812 -110.31345 74.35781 64.051855 172.248587 -44.755573 -166.686079 -98.326909 20.272189 118.081185 -86.005849 10.063581 -101.119631 90.867485 54.063386 140.472828 -54.413177 -49.342001 21.488398 61.333285 52.491819 46.343618 -69.171347 -21.248455 -45.629707 -9.34718 68.327052 -135.691619 -161.13055 25.430852 -35.284278 -16.013998 15.671165 -35.818125 67.472791 -48.768287 158.527902 80.229516 -2.634209 -17.393247 61.642325 -68.834683 45.701561
27.5804 30.3818 28.6279 -12.349025 50.695111 -6.203053 -1.079133 34.095526 -4.025321 131.220701 -69.245804 164.572372 -142.403794 -29.775484 120.137568 149.731905 -6.304566 82.306268 -81.269263 -6.001724 6.991486 -78.095941 -5.887726 7.254986 137.72839 47.481333 -103.51519 66.889236 -5.083086 47.758042 -98.333354 -57.292761 69.114992 173.571103 -52.42381 116.318025 2.436341 59.002627 -44.668242 50.156083 -55.961474 86.151049 5.578278 -40.426566 -60.855795 60.049209 48.158011 -140.331331 -27.184653 -2.22518 -124.471485 -23.196007 2.874092 156.161164 -102.317917 -15.067892 -138.684188 -89.83624 9.602244 94.797106 141.853322 36.441071 -51.496495 -143.200441 10.077716 -108.28577 11.363989 63.912362 -6.097048 121.68053 -23.747568 -160.315517 -1.802444 -10.363224 117.451469 -121.994747 3.841714 -152.306938 8.648235 -6.787081 2.04969 -57.60859 11.186305 74.675091 15.223062 -56.851814 81.584669 147.640675 -7.914135 -147.558292 63.365973 -60.941316 122.114556 105.540983 78.916479 -78.400071 27.312457 33.030893 74.195683 51.07847 -44.63505 175.814623 -10.976511 -42.436077 43.557455 57.59791 -42.372716 -26.01676 -31.035276 2.302455 -0.0 73.812935 -17.440751 48.520046 44.359535 55.703905 78.524538 65.290653 36.268072 110.284001 12.541353 3.059276 -17.273927 10.782118 -64.140523 -0.0 -71.985975 43.448057 56.061874 100.058415 25.311777 62.580855
27.5318 23.2822 28.7408 -15.544064 61.184059 -8.425177 -1.072018 27.3436 -128.927594 79.527756 47.419744 130.548898 -175.544274 -10.86307 -122.358917 -154.148209 -34.94538 -139.939561 -43.391879 -15.434498 37.617332 -74.101698 -8.728751 11.54527 53.470569 18.036695 -56.406974 62.198554 1.224066 1.080969 -15.299634 12.409802 130.029305 18.601721 -44.715259 -21.157357 -168.048256 -21.891702 110.601683 -105.23743 47.703983 83.525639 -49.659121 -64.587626 -115.572223 -66.241274 15.121172 -61.44541 -27.442835 -12.825714 -131.553539 151.806976 66.4546 -21.826064 47.130998 35.083699 -26.507733 -118.49501 -30.720218 -152.987345 -71.308354 30.885887 -112.92704 -98.002778 56.988739 -171.461074 53.404979 -76.686577 83.481028 -82.94012 65.872309 100.378563 0.404832 52.070381 -87.97274 -41.205573 20.428175 4.178764 161.224449 -13.561989 -97.873093 160.202821 18.274544 -19.215275 97.266024 -46.428416 179.771691 0.69693 55.133273 0.072007 94.753562 -43.425273 163.249766 35.638404 1.400036 15.814133 93.503033 -14.737866 87.22298 52.835474 -10.770307 86.596148 -67.055795 9.38406 6.785537 81.981883 2.136032 30.975301 146.706731 74.432074 0.0 -110.071211 2.415376 0.0 56.873826 37.764147 -8.836687 165.887953 -23.691716 163.132559 -98.879774 74.155997 -38.534423 143.038473 -0.27748 -0.0 -89.695484 25.181995 -5.32526 102.80735 25.123033 78.393821
26.9928 19.2865 28.6971 -23.658205 76.664752 -17.559074 -3.460937 37.114175 1.974905 4.795632 -71.222614 37.668926 -168.636246 15.497094 99.755834 128.696137 -6.219938 59.256086 16.126156 2.759381 19.297643 -62.53973 -6.366588 10.465224 -95.993203 -5.554795 -156.683238 83.055639 82.490461 -111.366041 146.095554 -5.7581 -21.927415 -29.84915 73.051873 -9.797514 7.455236 12.461246 13.050936 -137.62618 8.538383 98.126658 18.541531 -74.735013 -55.862292 -171.597135 -23.100945 -150.097967 -106.897026 56.903208 -139.813864 -105.86093 18.609667 -97.387452 84.969115 25.455755 -45.60678 -0.91819 -13.972038 1.283764 -141.883447 70.326922 -87.307494 -151.317396 53.287982 -151.175327 -10.92935 14.0475 -3.998428 13.608684 -82.939831 78.84556 13.307433 -56.831124 130.723696 -125.038913 1.446331 -123.500866 -18.946232 0.344436 12.258706 31.922517 -52.359994 97.248323 -2.121479 -72.489955 80.339057 50.830647 46.158372 -64.830596 80.332714 -67.188638 147.447217 109.335295 74.720385 -81.153466 -166.059399 45.573282 159.115143 42.680708 12.702614 -29.761436 -32.197145 8.944306 20.32577 177.456348 -38.282038 131.639212 -132.331653 56.077607 -52.914619 -148.519855 14.718595 -67.464959 -56.801732 54.132798 139.880881 31.740798 47.27404 170.968068 -28.094594 25.505377 -42.018181 74.822525 -55.167328 -180.0 97.982931 -21.002571 24.873118 176.149692 59.02807 5.246979
